<svg width="519" height="152" viewBox="0 0 519 152" fill="none" xmlns="http://www.w3.org/2000/svg">
<path d="M143.867 132.581L141.376 130.101L136.809 133.614C132.242 129.275 128.713 123.078 126.014 115.227C122.277 104.278 119.371 97.047 117.295 93.5346C112.105 85.0644 104.423 77.8337 93.8354 71.4294L122.9 50.7701L112.312 36.3088C104.838 26.1858 98.8179 18.1287 94.4584 12.5508L57.5055 36.9286C56.052 22.8803 47.3329 13.3771 33.4237 13.3771C23.8741 13.3771 14.9472 16.8892 6.85081 23.7067V26.3924C12.4561 24.9463 16.8157 24.1199 20.1373 24.1199C31.7629 24.1199 37.3681 30.5243 37.1605 43.333L36.9529 52.2165L3.32161 77.2142C26.1577 88.3698 37.5757 102.831 37.5757 120.598C22.2133 125.35 9.75724 134.027 0 146.835L0.207601 147.868C16.1928 141.878 29.4793 138.985 40.4822 138.985C43.1809 138.985 45.8798 139.192 48.1634 139.398C53.7685 140.018 59.789 141.878 65.8096 145.183C68.0931 146.422 71.8297 148.695 77.4352 152L98.6104 130.721L95.9114 128.035L91.5518 131.961C85.5313 128.449 79.0957 125.557 72.4527 123.284V87.5438C82.0022 87.5438 89.6833 91.6757 95.2889 100.146C97.3649 103.245 101.309 112.128 107.329 126.796C112.105 138.572 117.295 146.422 122.9 150.761H124.976L143.867 132.581ZM102.347 60.2737L72.4527 82.172V31.9704L78.8882 27.632L102.347 60.2737ZM68.0931 121.838C65.1866 121.012 62.0726 120.598 58.751 120.598V41.4737L68.0931 35.2759V121.838ZM36.7453 80.5196L21.1753 68.124L36.7453 57.7943V80.5196Z" fill="black"/>
<path d="M219.594 134.233L217.311 132.374L213.574 134.233C210.875 133.407 208.799 131.342 207.761 127.829V73.702C209.214 68.1242 211.498 62.9593 214.82 57.7945L214.404 56.968L208.592 61.5134L179.113 51.8032C172.677 57.7945 165.411 60.4804 157.729 59.8604L155.031 59.6539L164.995 85.4781C151.294 97.6667 144.443 110.062 144.443 122.871C144.443 131.342 149.425 140.225 159.183 149.315H160.221L188.455 126.796C188.455 136.919 192.814 144.357 201.741 149.108L219.594 134.233ZM188.455 95.3942L167.071 85.0646L158.352 61.5134L188.455 72.669V95.3942ZM188.662 121.425L173.092 134.647C164.995 126.59 161.051 117.913 161.051 108.616C161.051 102.212 163.127 95.3942 167.071 88.37L188.662 99.1131V121.425Z" fill="black"/>
<path d="M253.326 21.6406H237.964L232.982 42.713H235.68L253.326 21.6406ZM258.724 134.233L256.648 132.374L252.911 134.853C249.59 133.2 247.721 130.928 247.098 128.242V71.0162L252.288 65.2314L236.303 52.0098L220.94 64.6119L226.961 71.0162V124.936L226.754 128.655C226.131 137.538 230.491 144.563 239.832 149.521L258.724 134.233Z" fill="black"/>
<path d="M309.559 132.994L307.068 130.308L302.085 134.027L286.93 124.524V37.5484C286.93 29.9045 290.252 23.7067 297.103 18.7485C289.421 19.7815 282.155 23.2936 275.72 29.2847L273.436 29.4913C269.492 26.3924 264.925 24.1199 259.735 22.8803C264.302 27.632 266.585 31.9704 266.585 36.1023V118.532C266.585 124.524 264.717 129.482 261.188 133.407C274.266 138.159 284.024 143.323 290.667 149.108L309.559 132.994Z" fill="black"/>
<path d="M385.458 46.6383C385.458 41.4737 383.382 38.9946 379.23 38.9946C375.908 38.9946 374.247 40.0276 374.247 42.3001L375.285 44.1594C378.399 48.0847 379.853 50.5636 379.853 52.0101C379.853 55.935 375.908 59.2408 371.964 59.2408L366.566 59.8603C360.131 59.8603 351.411 56.9679 339.993 51.3901C332.312 58.6209 323.8 64.4052 314.458 68.537V100.352L334.388 111.302L309.684 146.422L312.382 148.282C319.648 145.183 326.499 143.53 333.35 143.53C340.201 143.53 347.259 145.389 354.318 148.901C360.131 144.976 364.283 142.497 366.566 141.051C370.926 138.365 375.493 136.299 380.06 134.853V96.8406L360.546 84.858L379.437 59.4473C383.382 54.076 385.458 49.7372 385.458 46.6383V46.6383ZM365.321 71.2229L345.183 97.6666L332.727 91.2623L332.935 67.5041C340.616 70.603 347.467 72.0494 353.695 72.0494C358.055 72.0494 361.999 71.8429 365.321 71.2229V71.2229ZM362.829 105.724L362.622 133.2C354.941 129.482 347.467 127.623 340.201 127.623C335.011 127.623 330.444 128.036 326.707 128.862L349.75 99.113L362.829 105.724Z" fill="black"/>
<path fill-rule="evenodd" clip-rule="evenodd" d="M437.908 9.68399H486.564C499.107 9.68399 509.27 19.8006 509.27 32.28V83.9281C509.27 96.4076 499.107 106.524 486.564 106.524H437.908C425.368 106.524 415.202 96.4076 415.202 83.9281V32.28C415.202 19.8006 425.368 9.68399 437.908 9.68399V9.68399ZM405.471 32.28C405.471 14.4522 419.993 0 437.908 0H486.564C504.479 0 519 14.4522 519 32.28V83.9281C519 101.756 504.479 116.208 486.564 116.208H437.908C419.993 116.208 405.471 101.756 405.471 83.9281V32.28ZM461.838 66.3149V36.3504H470.387V67.0257C470.387 77.1131 462.737 84.0139 451.243 84.0139C439.7 84.0139 432.098 77.1131 432.098 67.0257V36.3504H440.645V66.3149C440.645 72.207 444.746 76.4252 451.243 76.4252C457.716 76.4252 461.838 72.207 461.838 66.3149ZM478.706 36.3504H487.251V83.303H478.706V36.3504Z" fill="black"/>
</svg>
